<?xml version="1.0" encoding="utf-8"?>
<!-- Generator: Adobe Illustrator 27.9.0, SVG Export Plug-In . SVG Version: 6.00 Build 0)  -->
<svg version="1.1" id="Capa_1" xmlns="http://www.w3.org/2000/svg" xmlns:xlink="http://www.w3.org/1999/xlink" x="0px" y="0px"
	 viewBox="0 0 200 200" style="enable-background:new 0 0 200 200;" xml:space="preserve">
<style type="text/css">
	.st0{fill:#F07E1A;}
	.st1{fill:#FFFFFF;}
</style>
<g>
	<path class="st0" d="M83.04,171.03c-0.09-0.61-0.24-1.19-0.44-1.76c-0.07-0.21-0.15-0.41-0.24-0.62c-0.52-1.2-1.27-2.29-2.2-3.21
		c-0.01-0.01-0.01-0.01-0.02-0.02c-0.34-0.34-0.71-0.65-1.1-0.94c-0.13-0.1-0.27-0.19-0.4-0.28c-0.27-0.18-0.56-0.35-0.85-0.51
		c-0.58-0.31-1.2-0.57-1.84-0.78c-0.96-0.3-1.98-0.47-3.04-0.47h0h0c-1.66-0.01-3.23,0.39-4.63,1.11c-0.27,0.14-0.54,0.29-0.79,0.45
		c-0.43,0.27-0.84,0.57-1.23,0.91c-0.13,0.11-0.26,0.23-0.38,0.35c-0.24,0.23-0.47,0.47-0.69,0.72c-0.1,0.11-0.19,0.23-0.29,0.34
		c-0.12,0.15-0.23,0.29-0.34,0.45c-0.08,0.11-0.15,0.22-0.23,0.33c-0.24,0.36-0.45,0.73-0.64,1.12c-0.15,0.3-0.28,0.6-0.4,0.91
		c-0.41,1.09-0.64,2.27-0.66,3.49c-0.03,3.46,1.74,6.6,4.39,8.5c0.27,0.19,0.54,0.37,0.82,0.53c0.28,0.16,0.57,0.31,0.87,0.45
		c0.15,0.07,0.3,0.13,0.45,0.19c1.06,0.42,2.21,0.66,3.4,0.68c0,0,0,0,0,0l0,0c1.34,0.02,2.62-0.2,3.82-0.63
		c0.14-0.05,0.28-0.1,0.42-0.16c0.33-0.13,0.65-0.28,0.96-0.45c0.13-0.07,0.26-0.14,0.38-0.21c0.33-0.2,0.66-0.41,0.97-0.64
		c0.18-0.14,0.36-0.28,0.53-0.43c0.87-0.75,1.61-1.65,2.19-2.68c0.19-0.34,0.36-0.7,0.51-1.07c0.1-0.24,0.19-0.48,0.27-0.72
		c0.13-0.38,0.23-0.77,0.32-1.18c0.15-0.72,0.23-1.47,0.23-2.25c0-0.17,0-0.34-0.01-0.51C83.12,171.7,83.09,171.37,83.04,171.03z"/>
	<path class="st0" d="M154.31,169.58c-0.21-0.64-0.48-1.26-0.8-1.84c-0.61-1.09-1.41-2.06-2.35-2.86c-0.11-0.09-0.23-0.19-0.34-0.28
		c-0.2-0.16-0.41-0.31-0.63-0.45c-0.28-0.18-0.56-0.35-0.85-0.5c-0.29-0.15-0.59-0.3-0.9-0.42c-1.24-0.51-2.6-0.78-4.02-0.78l0,0
		l0,0c-1.21,0-2.39,0.24-3.48,0.67c-0.16,0.06-0.31,0.12-0.46,0.19c-0.61,0.27-1.19,0.6-1.73,0.99c-0.41,0.29-0.79,0.6-1.16,0.94
		c-2.05,1.93-3.33,4.65-3.23,7.53c0,1.38,0.25,2.65,0.7,3.79c0.06,0.16,0.13,0.32,0.2,0.48c0.1,0.21,0.2,0.42,0.31,0.62
		c0.23,0.43,0.49,0.84,0.78,1.22c0.16,0.22,0.33,0.43,0.51,0.63c0.02,0.02,0.04,0.05,0.07,0.08c0.35,0.39,0.73,0.74,1.13,1.07
		c0.19,0.16,0.39,0.3,0.59,0.44c0.17,0.12,0.35,0.24,0.52,0.35c0.55,0.34,1.14,0.63,1.74,0.86c0.3,0.12,0.61,0.22,0.92,0.3
		c0.28,0.08,0.57,0.14,0.86,0.2c0.18,0.03,0.37,0.07,0.56,0.09c0.48,0.06,0.96,0.09,1.44,0.09c0.35,0,0.69-0.03,1.03-0.07
		c0.34-0.04,0.68-0.1,1.01-0.17c0.33-0.07,0.65-0.16,0.97-0.27c0.48-0.16,0.94-0.35,1.39-0.57c0.15-0.07,0.29-0.15,0.44-0.23
		c0.43-0.24,0.85-0.52,1.24-0.82c0.13-0.1,0.26-0.2,0.39-0.31c1.89-1.6,3.21-3.84,3.58-6.35c0.07-0.5,0.11-1.01,0.1-1.53
		c-0.01-0.72-0.09-1.42-0.24-2.09C154.51,170.23,154.42,169.9,154.31,169.58z"/>
	<path class="st1" d="M182.65,149.72c-0.03-0.15-0.07-0.29-0.12-0.43c-0.14-0.42-0.33-0.78-0.57-1.09
		c-0.72-0.94-1.91-1.41-3.56-1.41c-6.6,0-13.2,0-19.81,0c-11.23,0-22.47,0-33.7,0c-5.62,0-11.23,0-16.85,0c-7.63,0-15.27,0-22.9,0
		s-15.27,0-22.9,0c-0.04,0-0.08,0-0.11,0c-0.27,0-0.55,0-0.92,0c0.08-0.25,0.12-0.41,0.17-0.54c0.01-0.02,0.01-0.04,0.02-0.06
		c0.42-1.13,0.83-2.26,1.25-3.39c0.83-2.26,1.66-4.52,2.5-6.77c0.42-1.13,0.84-2.26,1.26-3.38c0.3-0.8,0.46-1.6,0.44-2.42
		c-0.01-0.28-0.03-0.56-0.08-0.84c-0.45-2.73-0.89-5.47-1.32-8.2c-0.43-2.73-0.86-5.47-1.3-8.2c-1.6-10.15-3.18-20.29-4.79-30.44
		c-0.91-5.76-1.82-11.51-2.73-17.27c-0.78-4.91-1.56-9.82-2.33-14.73c-1.52-9.59-3.03-19.18-4.54-28.77
		c-0.06-0.36-0.11-0.73-0.17-1.09c0-0.03-0.01-0.05-0.02-0.08c-0.04-0.23-0.09-0.45-0.15-0.65c-0.53-1.91-1.88-2.92-4.02-2.92
		c-0.72,0-1.45,0-2.17,0c-0.72,0-1.45,0.01-2.17,0.01c-1.45,0.01-2.89,0.02-4.34,0.02c0,0,0,0-0.01,0c-4.17,0-8.35-0.02-12.52-0.03
		c0,0-0.01,0-0.01,0c-1.39,0-2.79,0-4.18,0c-2.01,0-3.47,1.24-3.81,3.08c-0.05,0.26-0.08,0.54-0.08,0.82
		c-0.01,0.81-0.01,1.62-0.01,2.42c0,0,0,0,0,0c0,0.81,0,1.61,0,2.42c0,0.87,0.15,1.61,0.43,2.22c0.17,0.37,0.39,0.69,0.67,0.96
		c0.18,0.18,0.38,0.34,0.61,0.48c0.11,0.07,0.23,0.13,0.35,0.19c0.61,0.29,1.36,0.43,2.22,0.43h0l0,0c5.49,0,10.97,0,16.46,0
		c0.33,0,0.65,0,0.98,0c0.04,0.21,0.08,0.38,0.11,0.54c0.02,0.1,0.04,0.2,0.05,0.3c1.35,8.52,2.7,17.04,4.04,25.57
		c0.93,5.91,1.86,11.82,2.79,17.74c0.93,5.91,1.86,11.82,2.79,17.74c1.39,8.8,2.78,17.59,4.17,26.39c0.55,3.49,1.1,6.98,1.64,10.47
		c0.04,0.26,0.05,0.54,0.02,0.81c-0.01,0.14-0.03,0.27-0.06,0.41c-0.03,0.13-0.07,0.26-0.11,0.39c-1.47,4.02-2.95,8.04-4.43,12.06
		c-0.74,2.01-1.48,4.02-2.22,6.03c-0.74,2.01-1.48,4.02-2.23,6.03c-0.24,0.65-0.33,1.27-0.28,1.87c0.03,0.29,0.09,0.58,0.19,0.86
		c0.16,0.46,0.42,0.9,0.79,1.33c0.11,0.12,0.22,0.24,0.33,0.34c0.02,0.02,0.04,0.03,0.05,0.05c0.08,0.07,0.16,0.13,0.25,0.19
		c0.79,0.55,1.74,0.7,2.76,0.69c9.44-0.02,18.88-0.01,28.32-0.01c16.82,0,33.65,0,50.47,0c7.97,0,15.93-0.01,23.9-0.01
		c9.22,0,18.44,0.01,27.66,0c0.81,0,1.52-0.19,2.11-0.53c0.14-0.08,0.28-0.17,0.41-0.27c0.03-0.03,0.07-0.05,0.1-0.08
		c0.65-0.55,1.09-1.33,1.26-2.27c0.05-0.27,0.07-0.56,0.08-0.86c0-0.77,0-1.53,0-2.3c0-0.77,0-1.53,0-2.3
		C182.8,150.67,182.75,150.17,182.65,149.72z"/>
	<path class="st0" d="M183.66,51.51c-0.06-0.18-0.13-0.36-0.19-0.54c-0.23-1.11-0.69-2.07-1.47-2.77c0,0,0.21-1.36-3.02-2.14
		c-0.72-0.24-1.49-0.37-2.3-0.38c-0.03,0-0.06,0-0.09,0c-1.85-0.18-4.33-0.21-7.65,0.02c-1.41,0.02-2.81,0.04-4.21-0.04
		c-1.95-0.11-3.89,0.12-5.84,0.08c-6.82-0.14-13.65-0.05-20.47-0.05c-0.18,0-0.35,0.02-0.58,0.04l-2.04-0.01
		c-0.81-0.06-1.62-0.03-2.44-0.04c-1.92-0.01-3.84,0-5.77,0l-57.52-0.26c0,0-4.16-0.88-6.99,0.45c-1.81,0.53-2.83,2.12-2.56,4.24
		c0,0.82,0.15,1.77,0.48,2.88c0.66,3.98,1.3,7.96,1.99,11.93c0.02,0.11,0.04,0.22,0.07,0.32l0.77,4.56
		c0.01,0.22,0.03,0.45,0.07,0.67c0.5,3.24,1.1,6.47,1.6,9.71c0.49,3.19,1.14,6.34,1.61,9.53c0.42,2.86,0.94,5.7,1.41,8.55
		c0.62,3.7,1.23,7.4,1.87,11.1c0.02,0.1,0.07,0.2,0.13,0.29l0.22,1.31c-0.02,0.27-0.03,0.54,0.01,0.8c0.74,4.55,1.51,9.1,2.3,13.64
		c0.17,1.01,0.34,2.03,0.57,3.03c0.03,0.24,0.09,0.55,0.23,0.89c0.01,0.02,0.01,0.04,0.02,0.06c0.23,0.78,0.46,1.13,0.9,1.16
		c0.17,0.14,0.37,0.28,0.59,0.4c-0.05,0.07-0.11,0.16-0.18,0.25c0.73,0.16,1.36,0.43,1.99,0.43c0.31,0,0.62,0,0.93,0
		c0.25,0.01,0.52,0.02,0.8,0.01l66.91,0.22c0,0,2.29,0.17,5.05-0.3c0.36-0.04,0.72-0.1,1.08-0.19c0.72-0.16,1.39-0.37,2.01-0.62
		c2.49-0.91,4.84-2.53,5.87-5.39c0.88-1.67,1.49-3.58,1.94-5.62c-0.02,0.02-0.04,0.04-0.06,0.06l0.27-0.8
		c0.18-0.24,0.33-0.5,0.43-0.8c0.32-0.92,0.62-1.85,0.93-2.77c3.38-10.13,6.77-20.27,10.15-30.4c0.21-0.62,0.57-1.23,0.58-1.83
		l0.75-2.22c0.09-0.14,0.17-0.3,0.23-0.47c0.56-1.65,1.12-3.29,1.66-4.95c0.22-0.66,0.42-1.33,0.62-1.99l1.58-4.69
		c0.35-0.91,0.64-1.83,0.93-2.76l0.2-0.6c0,0,2.54-5.09,3.35-9.94c0.01-0.02,0.01-0.04,0.02-0.05
		C183.83,54.21,184.12,52.83,183.66,51.51z"/>
</g>
</svg>
