<?xml version="1.0" encoding="utf-8"?>
<!-- Generator: Adobe Illustrator 27.9.0, SVG Export Plug-In . SVG Version: 6.00 Build 0)  -->
<svg version="1.1" id="Capa_1" xmlns="http://www.w3.org/2000/svg" xmlns:xlink="http://www.w3.org/1999/xlink" x="0px" y="0px"
	 viewBox="0 0 520.28 99.52" style="enable-background:new 0 0 520.28 99.52;" xml:space="preserve">
<style type="text/css">
	.st0{fill:#EFEFEF;}
	.st1{fill:#EF6906;}
</style>
<g>
	<path class="st0" d="M288.38,53.8l-4,17.85h-9.78l9.48-42.34h33.29l-1.66,7.4h-23.51l-2.16,9.63h20.55l-1.67,7.46H288.38z"/>
	<path class="st0" d="M352.38,71.65l-13.62-28.44l-6.37,28.44h-9.08l9.48-42.34h10.35l12.49,27.23l6.1-27.23h9.15l-9.48,42.34
		H352.38z"/>
</g>
<g>
	<path class="st0" d="M55.6,22.17c0,0-20.12-0.18-23.39,3.35s-3.44,9-3.8,13.5s-0.35,25.06,0.26,27.71
		c0.62,2.65,1.32,7.68,9.44,8.74s18.45,1.5,29.21,0.71s12.71-5.65,14.03-10.15c1.32-4.5,1.32-22.86,0.53-29.39
		s-1.59-11.39-10.59-13.06C62.31,21.91,55.6,22.17,55.6,22.17z"/>
	<path class="st1" d="M37.42,69.21L74.57,31c0,0,1.85,5.91,2.21,19.06s0.44,18.89-7.77,20.48C60.81,72.13,42.36,71.24,37.42,69.21z"
		/>
	<path class="st1" d="M34.15,59.59c0,0,37.95-27.71,38.3-28.86c0.35-1.15-4.32-2.65-17.3-2.65s-16.59,0.53-18.98,2.74
		c-1.24,1.15-2.14,4.78-2.56,9.27C33.09,45.74,34.15,59.59,34.15,59.59z"/>
</g>
<g>
	<path class="st0" d="M140.92,36.68c-0.34-1.51-1.03-2.81-2.05-3.89c-1.02-1.08-2.35-1.93-3.97-2.55c-1.62-0.62-3.51-0.92-5.67-0.92
		h-4.75l-7.13,7.33h8.63c2.44,0,4.07,0.53,4.89,1.59c0.82,1.06,1.04,2.42,0.67,4.08c-0.36,1.62-1.2,2.96-2.52,4.02
		c-1.32,1.06-3.29,1.59-5.92,1.59h-12.25l1.34-5.98L99.83,54.64l-3.81,17.01h9.5l3.71-16.58h10.42c2.82,0,4.64,0.44,5.48,1.31
		c0.84,0.87,1.03,2.33,0.57,4.37l-2.44,10.9h9.57l2.68-11.99c0.55-2.47,0.53-4.31-0.06-5.55c-0.59-1.23-1.85-2.15-3.78-2.74
		c2.41-0.72,4.42-1.97,6.01-3.73c1.59-1.76,2.64-3.79,3.16-6.09C141.24,39.81,141.26,38.19,140.92,36.68z"/>
	<polygon class="st0" points="105.51,29.31 102.29,43.69 121.02,29.31 	"/>
</g>
<g>
	<path class="st0" d="M492.53,36.68c-0.34-1.51-1.03-2.81-2.05-3.89c-1.02-1.08-2.35-1.93-3.97-2.55c-1.62-0.62-3.51-0.92-5.67-0.92
		h-4.75l-7.13,7.33h8.63c2.44,0,4.07,0.53,4.89,1.59c0.82,1.06,1.04,2.42,0.67,4.08c-0.36,1.62-1.2,2.96-2.52,4.02
		c-1.32,1.06-3.29,1.59-5.92,1.59h-12.25l1.34-5.98l-12.34,12.69l-3.81,17.01h9.5l3.71-16.58h10.42c2.82,0,4.64,0.44,5.48,1.31
		c0.84,0.87,1.03,2.33,0.57,4.37l-2.44,10.9h9.57l2.68-11.99c0.55-2.47,0.53-4.31-0.06-5.55c-0.59-1.23-1.85-2.15-3.78-2.74
		c2.41-0.72,4.42-1.97,6.01-3.73c1.59-1.76,2.64-3.79,3.16-6.09C492.85,39.81,492.87,38.19,492.53,36.68z"/>
	<polygon class="st0" points="457.12,29.31 453.9,43.69 472.64,29.31 	"/>
</g>
<g>
	<polygon class="st0" points="160,62.92 168.16,62.92 169.16,71.65 179.79,71.65 175.68,46.8 	"/>
	<polygon class="st0" points="159.51,55.65 155.08,55.65 164.83,38.82 164.9,38.82 166.33,50.41 175.16,43.63 172.8,29.31 
		161.47,29.31 135.3,71.65 145.65,71.65 150.91,62.92 151.11,62.92 151.11,62.09 	"/>
</g>
<g>
	<path class="st0" d="M221.31,32.58L214.09,40c0.42,0.94,0.66,2.01,0.72,3.21h9.78c0.24-2.12,0.07-4.12-0.52-5.99
		C223.51,35.46,222.59,33.91,221.31,32.58z"/>
	<path class="st0" d="M215.68,29.09c-2.19-0.79-4.75-1.18-7.65-1.18c-3.33,0-6.47,0.53-9.4,1.59c-2.94,1.06-5.56,2.58-7.88,4.56
		c-2.32,1.98-4.31,4.4-5.96,7.27c-1.65,2.87-2.88,6.09-3.68,9.66c-0.82,3.66-0.98,6.85-0.5,9.6c0.49,2.74,1.48,5.05,2.99,6.92
		c1.5,1.87,3.48,3.27,5.92,4.21c2.44,0.93,5.19,1.4,8.24,1.4c2.72,0,5.29-0.38,7.72-1.15c2.42-0.77,4.65-1.85,6.68-3.25
		c2.03-1.4,3.82-3.08,5.39-5.04c1.56-1.95,2.88-4.14,3.93-6.57h-9.78c-1.26,2.68-2.92,4.73-5,6.15c-2.08,1.42-4.57,2.14-7.48,2.14
		c-3.8,0-6.36-1.31-7.67-3.92c-1.31-2.61-1.44-6.28-0.39-11c1.04-4.63,2.82-8.28,5.34-10.94c2.52-2.66,5.82-3.98,9.9-3.98
		c1.87,0,3.49,0.43,4.87,1.28l7.89-6.05C218.12,30.12,216.97,29.55,215.68,29.09z"/>
</g>
<g>
	<polygon class="st0" points="256.7,53.23 258.37,45.77 246.63,45.77 239.38,53.23 	"/>
	<polygon class="st0" points="221.31,71.65 255.67,71.65 257.35,64.13 231.38,64.13 232.16,60.64 225.29,67.71 	"/>
	<polygon class="st0" points="262.37,36.71 264.02,29.31 229.67,29.31 222.21,62.63 242.55,45.77 235.49,45.77 237.52,36.71 	"/>
</g>
<g>
	<polygon class="st0" points="444.51,53.23 446.18,45.77 434.44,45.77 427.19,53.23 	"/>
	<polygon class="st0" points="409.12,71.65 443.48,71.65 445.16,64.13 419.19,64.13 419.97,60.64 413.1,67.71 	"/>
	<polygon class="st0" points="450.18,36.71 451.83,29.31 417.48,29.31 410.02,62.63 430.36,45.77 423.3,45.77 425.33,36.71 	"/>
</g>
<g>
	<path class="st0" d="M409.84,41.37c-0.51-2.55-1.51-4.72-3.01-6.5c-0.9-1.07-1.97-1.98-3.2-2.75l-6.15,6.32
		c0.53,0.37,0.99,0.81,1.36,1.31c0.81,1.08,1.26,2.48,1.35,4.18c0.09,1.7-0.13,3.74-0.67,6.12c-1.08,4.8-2.84,8.41-5.31,10.81
		c-2.46,2.4-5.83,3.6-10.1,3.6h-8.09l1.17-5.21l-12.04,11.95v-0.63l-0.25,1.09h19.57c3,0,5.86-0.52,8.59-1.56
		c2.72-1.04,5.18-2.51,7.39-4.4c2.21-1.89,4.09-4.17,5.65-6.82c1.56-2.66,2.7-5.6,3.42-8.83C410.24,46.81,410.35,43.92,409.84,41.37
		z"/>
	<path class="st0" d="M382.25,36.65h7.25c1.91,0,3.54,0.16,4.91,0.49l7.29-6.04c-0.27-0.12-0.54-0.23-0.82-0.34
		c-2.46-0.96-5.26-1.43-8.41-1.43h-18.09l-6.72,29.99l11.67-9.68L382.25,36.65z"/>
</g>
<g>
	<polygon class="st0" points="329.41,29.31 319.63,29.31 313.86,55.05 325.88,45.09 	"/>
	<polygon class="st0" points="317.31,59.82 311.5,65.59 310.15,71.65 319.93,71.65 324.16,52.79 	"/>
</g>
</svg>
